<?xml version="1.0" encoding="UTF-8" standalone="no"?>
<svg
   width="400"
   height="112.82052"
   fill="none"
   version="1.1"
   id="svg1640"
   sodipodi:docname="logo-color-ru.svg"
   inkscape:version="1.1.1 (3bf5ae0d25, 2021-09-20)"
   xmlns:inkscape="http://www.inkscape.org/namespaces/inkscape"
   xmlns:sodipodi="http://sodipodi.sourceforge.net/DTD/sodipodi-0.dtd"
   xmlns="http://www.w3.org/2000/svg"
   xmlns:svg="http://www.w3.org/2000/svg">
  <defs
     id="defs1644" />
  <sodipodi:namedview
     id="namedview1642"
     pagecolor="#505050"
     bordercolor="#eeeeee"
     borderopacity="1"
     inkscape:pageshadow="0"
     inkscape:pageopacity="0"
     inkscape:pagecheckerboard="0"
     showgrid="false"
     fit-margin-top="0"
     fit-margin-left="0"
     fit-margin-right="0"
     fit-margin-bottom="0"
     inkscape:zoom="1.6759259"
     inkscape:cx="136.0442"
     inkscape:cy="119.63536"
     inkscape:window-width="2560"
     inkscape:window-height="1369"
     inkscape:window-x="-8"
     inkscape:window-y="-8"
     inkscape:window-maximized="1"
     inkscape:current-layer="svg1640" />
  <mask
     id="a"
     maskUnits="userSpaceOnUse"
     x="22"
     y="18"
     width="34"
     height="33">
    <path
       fill-rule="evenodd"
       clip-rule="evenodd"
       d="M 30.202,18.015 31.614,18 46.301,18.006 c 0.223,0.002 0.362,0.005 0.5,0.009 0.728,0.019 1.463,0.061 2.183,0.19 a 7.41,7.41 0 0 1 2.075,0.676 c 0.652,0.328 1.25,0.756 1.767,1.269 a 6.878,6.878 0 0 1 1.283,1.746 c 0.34,0.657 0.553,1.33 0.684,2.052 0.13,0.712 0.173,1.438 0.192,2.158 0.01,0.33 0.014,0.66 0.015,0.991 l 0.002,0.589 v 13.037 c 0,0.392 0,0.785 -0.002,1.178 -0.002,0.33 -0.005,0.66 -0.015,0.99 -0.02,0.72 -0.062,1.447 -0.192,2.158 a 7.202,7.202 0 0 1 -0.684,2.052 6.897,6.897 0 0 1 -1.283,1.747 6.975,6.975 0 0 1 -1.767,1.269 7.406,7.406 0 0 1 -2.075,0.676 c -0.72,0.128 -1.455,0.17 -2.183,0.19 L 44.607,51 30.701,50.992 a 27.229,27.229 0 0 1 -0.499,-0.01 c -0.728,-0.018 -1.463,-0.061 -2.183,-0.189 a 7.405,7.405 0 0 1 -2.074,-0.676 6.963,6.963 0 0 1 -3.052,-3.016 7.236,7.236 0 0 1 -0.684,-2.052 c -0.13,-0.711 -0.172,-1.438 -0.191,-2.157 -0.01,-0.33 -0.013,-0.661 -0.015,-0.991 L 22,41.31 V 28.275 c 0,-0.392 0,-0.785 0.003,-1.177 0.002,-0.33 0.006,-0.66 0.015,-0.991 0.02,-0.72 0.062,-1.446 0.191,-2.158 a 7.231,7.231 0 0 1 0.684,-2.052 6.95,6.95 0 0 1 3.051,-3.016 7.409,7.409 0 0 1 2.075,-0.676 c 0.72,-0.128 1.455,-0.17 2.183,-0.19 z"
       fill="#ffffff"
       id="path1623" />
  </mask>
  <g
     mask="url(#a)"
     id="g1636"
     transform="matrix(3.4188035,0,0,3.4188035,-75.213677,-61.538463)"
     style="stroke-width:0.2925">
    <path
       fill="#19aa1e"
       d="M 22,17.998 H 55.003 V 51.001 H 22 Z"
       id="path1626"
       style="stroke-width:0.0842919" />
    <path
       fill-rule="evenodd"
       clip-rule="evenodd"
       d="M 22,17.998 H 55.003 V 28.826 L 22,23.67 Z"
       fill="#ffb919"
       id="path1628"
       style="stroke-width:0.0842919" />
    <path
       fill-rule="evenodd"
       clip-rule="evenodd"
       d="M 22,47.39 55.003,42.234 V 51 H 22 Z"
       fill="#82d714"
       id="path1630"
       style="stroke-width:0.0842919" />
    <path
       fill-rule="evenodd"
       clip-rule="evenodd"
       d="m 22,23.018 11.52,1.8 c 1.434,-0.908 3.14,-1.406 4.981,-1.406 2.55,0 4.842,0.955 6.51,2.631 0.21,0.212 0.408,0.433 0.595,0.663 l 9.397,1.468 v 1.305 l -8.443,-1.32 a 8.472,8.472 0 0 1 0.965,3.914 c 0,1.768 -0.395,3.531 -1.213,5.301 l -0.024,0.054 -0.348,0.744 h -0.82 c -1.696,0 -2.82,0.507 -3.556,1.406 -0.577,0.705 -0.911,1.657 -1.023,2.695 l -0.004,0.032 -0.016,0.166 -0.007,0.072 -0.014,0.141 c -0.043,0.464 -0.071,0.857 -0.086,1.177 l 14.589,-2.28 v 1.305 L 22,48.043 v -1.305 l 14.605,-2.282 -0.006,-0.293 -0.002,-0.082 -0.002,-0.043 -0.002,-0.065 c -0.013,-0.355 -0.046,-0.81 -0.098,-1.362 l -0.01,-0.105 -0.018,-0.181 c -0.104,-1.044 -0.433,-2.007 -1.01,-2.723 -0.727,-0.905 -1.84,-1.42 -3.523,-1.43 h -0.872 l -0.347,-0.744 c -0.834,-1.788 -1.238,-3.569 -1.238,-5.355 0,-2.246 0.911,-4.418 2.515,-6.03 L 32.132,25.906 22,24.322 Z"
       fill="#ffffff"
       id="path1632"
       style="stroke-width:0.0842919" />
    <path
       fill-rule="evenodd"
       clip-rule="evenodd"
       d="m 38.501,24.701 c 4.608,0 7.735,3.546 7.735,7.372 0,1.536 -0.335,3.134 -1.117,4.81 -4.533,0 -5.652,3.246 -5.864,5.29 l -0.014,0.135 c -0.071,0.73 -0.113,1.315 -0.124,1.755 l -1.228,0.192 v -0.04 A 23.516,23.516 0 0 0 37.757,42.27 l -0.003,-0.036 c -0.196,-2.039 -1.291,-5.351 -5.87,-5.351 -0.783,-1.676 -1.118,-3.274 -1.118,-4.81 0,-3.826 3.128,-7.372 7.735,-7.372 z"
       fill="#0073fa"
       id="path1634"
       style="stroke-width:0.0842919" />
  </g>
  <path
     fill-rule="evenodd"
     clip-rule="evenodd"
     d="m 167.05641,20.512819 c -17.3812,0 -30.41367,10.335042 -30.30427,28.283761 h 16.15384 c -0.22222,-7.179487 4.45471,-14.14359 14.15043,-14.14359 7.35043,0 12.03077,4.786324 12.03077,10.878633 0,6.311111 -5.1282,9.791453 -13.36752,13.709402 -10.80684,5.11111 -17.26838,7.504273 -28.96752,11.309401 V 91.220512 H 196.9094 V 77.076923 h -38.32136 c 5.58291,-2.273505 11.0188,-4.769232 15.93162,-7.070086 13.03248,-6.088889 20.71795,-12.94359 20.71795,-25.234189 0,-14.796581 -11.36068,-24.259829 -28.1812,-24.259829 z m 54.3624,15.227351 h 31.19316 V 21.599998 h -46.78974 v 69.620514 h 15.59658 z m 55.70256,-14.140172 h -15.59658 v 69.620514 h 15.48376 l 29.07692,-44.492308 v 44.492308 h 15.59658 V 21.599998 h -15.59658 l -28.9641,44.492309 z M 400,65.11111 h -16.15384 c -2.45128,7.726496 -9.91453,13.056411 -18.71453,13.056411 -12.81368,0 -21.16923,-10.769231 -21.16923,-21.757266 0,-10.988034 8.13334,-21.757265 21.61367,-21.757265 8.91283,0 15.81881,5.333333 18.27009,13.05641 H 400 c -2.33845,-15.555556 -14.92649,-27.196581 -34.86837,-27.196581 -22.05812,0 -36.76582,15.121367 -36.76582,35.897436 0,20.776069 14.7077,35.897437 36.76582,35.897437 19.94188,0 32.52992,-11.418804 34.86837,-27.196582 z"
     fill="#262626"
     id="path1638"
     style="stroke-width:1" />
</svg>
